<?xml version="1.0" encoding="UTF-8"?>
<svg width="900" height="150" version="1.1" viewBox="0 0 793.75 132.29" xmlns="http://www.w3.org/2000/svg" xmlnsCc="http://creativecommons.org/ns#" xmlnsDc="http://purl.org/dc/elements/1.1/" xmlnsRdf="http://www.w3.org/1999/02/22-rdf-syntax-ns#" >
 <defs>
  <linearGradient id="linearGradient3528" x1="53.454" x2="213.82" y1="63.076" y2="191.36" gradientUnits="userSpaceOnUse" href="#linearGradient3526"/>
  <linearGradient id="linearGradient3526">
   <stop stop-color="#ae0000" offset="0"/>
   <stop stop-color="#2b6600" offset="1"/>
  </linearGradient>
  <clipPath id="clipPath2264">
   <path d="m50.454 60.075v134.29h166.36v-134.29h-34.005c-1e-3 0.07026-4e-3 0.1406-4e-3 0.21084 5e-3 0.76262 6e-3 1.5251 5e-3 2.2877-1e-3 0.57162-5.2e-4 1.143-5.2e-4 1.7146 1e-5 0.61717-3e-5 1.2344 0 1.8516 1e-5 0.54789 0 1.0959 0 1.6438v2.3482c0 5.2917-5.3454 5.2917-5.3454 0v-2.3482c0-0.54784 3e-5 -1.0955 0-1.6433-1e-5 -0.61703 3e-5 -1.234 0-1.851-5e-5 -0.57389-5.3e-4 -1.148 5.3e-4 -1.7219 1e-3 -0.78566-1e-3 -1.5713-4e-3 -2.357 7.9e-4 -0.04518 2e-3 -0.09024 3e-3 -0.13539h-86.594v9.5214c0 5.2917-5.3454 5.2917-5.3454 0v-9.5214z" fill="none" stop-color="#000000" stroke-opacity="0" style="font-variation-settings:normal"/>
  </clipPath>
  <linearGradient id="linearGradient3544" x1="100.17" x2="178.33" y1="94.292" y2="94.292" gradientUnits="userSpaceOnUse">
   <stop stop-color="#891d00" offset="0"/>
   <stop stop-color="#633b00" offset="1"/>
  </linearGradient>
  <linearGradient id="linearGradient3552" x1="100.17" x2="163.36" y1="126.2" y2="126.2" gradientUnits="userSpaceOnUse">
   <stop stop-color="#7c2700" offset="0"/>
   <stop stop-color="#5d3f00" offset="1"/>
  </linearGradient>
  <linearGradient id="linearGradient3560" x1="99.731" x2="189.65" y1="157.48" y2="157.48" gradientUnits="userSpaceOnUse">
   <stop stop-color="#703000" offset="0"/>
   <stop stop-color="#445200" offset="1"/>
  </linearGradient>
  <linearGradient id="linearGradient3536" x1="52.926" x2="214.02" y1="69.435" y2="69.435" gradientUnits="userSpaceOnUse">
   <stop stop-color="#aa0300" offset="0"/>
   <stop stop-color="#5b4100" offset="1"/>
  </linearGradient>
  <marker id="Arrow1Lend" overflow="visible" orient="auto">
   <path transform="matrix(-.8 0 0 -.8 -10 0)" d="m0 0 5-5-17.5 5 17.5 5z" fill="#467f08" fill-rule="evenodd" stroke="#467f08" stroke-width="1pt"/>
  </marker>
  <marker id="Arrow1Lend-8" overflow="visible" orient="auto">
   <path transform="matrix(-.8 0 0 -.8 -10 0)" d="m0 0 5-5-17.5 5 17.5 5z" fill="#467f08" fill-rule="evenodd" stroke="#467f08" stroke-width="1pt"/>
  </marker>
  <clipPath id="clipPath1204">
   <path d="m3.0598 3.0598v258.46h200.85c-4.934-10.143-19.216-41.273-21.87-47.309-1.2871-2.9268-2.2893-5.9711-3.4747-8.9405-5.3226-13.333-4.1263-10.403-8.9814-21.33-3.4333-6.8502-6.7527-13.759-10.3-20.551-11.979-22.935-25.24-45.19-36.411-68.554-15.791-30.484-17.672-34.657-21.859-43.068-4.9233 16.928-12.358 33.155-19.303 49.32-2.954 6.8758-9.9034 3.8875-6.9448-2.9864 7.9258-18.415 16.553-36.896 21.109-56.475-1.7505-3.4086-3.8831-7.5315-6.7334-13-2.3468 1.5894-5.5839-0.22982-5.2777-5.0271-0.31974-0.29212-0.62585-0.62768-0.93276-1.0118-0.25553-0.40416-0.52704-0.79918-0.76688-1.2128-0.06139-0.10588-0.23891-0.27797-0.13436-0.34158 0.12332-0.07503 0.44603 0.31905 0.39119 0.18552-0.19962-0.48603-1.8796-1.1865-1.8852-1.8619-0.15253-0.31104-0.30433-0.62246-0.45734-0.93328-0.36034-0.21457-0.75926-0.40919-0.68885-0.75654 0.36191-1.7852 1.035-3.4074 1.6108-4.5997-0.09613-0.18216-0.19447-0.36303-0.29249-0.54415-0.51745 0.5923-1.1689 1.332-2.0913 2.357 0.24098 0.56781 1.0478 1.1789 0.72295 1.7033-0.28785 0.46456-0.66003-0.87261-0.95085-1.3353-0.57382-0.91297-1.1269-1.8399-1.6407-2.7879-1.6556-3.0545-3.0886-6.2312-4.5108-9.403zm80.896 0c1.2211 2.0558 2.4666 4.0982 3.5832 6.2115 0.99868-2.2718 3.0472-2.9436 4.6648-2.0236 0.14651-0.53046 0.34876-1.0421 0.66456-1.5136 0.90097-0.77788 1.5682-1.9747 2.7032-2.3332 0.26351-0.083226 0.51855-0.13759 0.7674-0.17053 0.27416-0.076864 0.56648-0.12349 0.87746-0.12867 0.11998-0.00201 0.24329 0.00405 0.36794 0.013435-0.01109-0.018394-0.02199-0.0369-0.03307-0.055294zm31.717 0c0.24462 0.90458 0.394 1.4671 0.71468 2.6453 1.1024 4.0506 2.2487 8.0895 3.3967 12.127 0.72092 2.5357 1.5758 5.0345 2.2097 7.5933 0.47029 1.8986 0.79353 3.8302 1.155 5.7531 1.4472 2.4692 2.8789 4.9473 4.2752 7.4455 13.018 23.291 26.08 48.057 38.497 71.828 17.939 34.021 35.411 68.286 53.21 102.38 1.7199 3.2944 3.4447 6.5862 5.1707 9.8774 0.48623 0.1389 1.0645 0.31146 1.9296 0.55449 1.3853 0.75189 2.8656 1.3504 4.1558 2.2557 0.57029 0.40014 0.97272 1.0113 1.342 1.602 1.8355 2.9358 2.0248 3.6248 2.0014 6.6208-0.21172 0.86566-0.34583 1.7543-0.6351 2.5973-0.16647 0.48513-0.50656 0.93189-0.94206 1.3136 3.6613 6.9571 7.3256 13.913 10.982 20.873 0.62317 1.1727 1.0283 1.9297 1.5968 2.9978h16.79v-258.46zm-35.902 14.736c-0.09109-0.19161 0.10946 0.27453 0.26355 0.53744-0.08789-0.17912-0.17789-0.35724-0.26355-0.53744zm0.32504 0.64027c0.0034 0.0047 0.0081 0.01438 0.01138 0.0186 0.09185 0.12029 0.47094 0.37694 0.36897 0.2651-0.09671-0.10607-0.2349-0.19655-0.38034-0.2837zm17.623 4.1186c-0.58835 0.1791-1.1642 0.20328-1.6898 0.08217 0.15536 0.20971 0.30578 0.416 0.21756 0.62425-0.13363 0.31545-0.68628-0.05553-1.0185-0.13901-0.17274-0.0434-0.34334-0.09425-0.51315-0.1478 1.2473 2.3889 2.3688 4.5418 3.3967 6.52 0.07124-0.53069 0.14364-1.0612 0.20774-1.5937 0.2205-1.3799 0.45374-2.758 0.6904-4.1357-0.3974-0.33317-0.82498-0.73022-1.2909-1.2103zm13.881 5.0033c-0.43913 0.39095-0.86027 0.80026-1.2495 1.2423-0.31064 0.35276 0.68957 0.48113 1.2883 0.53588 0.5394-0.16347 1.0144-0.32121 1.3534-0.47594-0.22502-0.37756-0.44973-0.75527-0.67489-1.1327-0.15233-0.03989-0.31483-0.08007-0.4992-0.12092-0.0727-0.01611-0.14537-0.03245-0.21807-0.04857zm-1.48 1.6614c-0.0171 0.19259-0.0345 0.38516-0.0517 0.57774 0.44667-0.13007 0.88792-0.257 1.2966-0.37775-0.41584-0.0612-0.83055-0.1299-1.2449-0.19999zm4.6762 2.6774c-0.0533 0.11192-0.12001 0.21775-0.20464 0.31522-1.215 1.3994-3.2714 1.7254-4.947 2.5368l-0.47025 5.6984c-0.23254 2.8186-1.4534 4.4814-2.8489 5.0591 5.3191 10.574 6.3031 13.118 23.286 45.904 11.142 23.31 24.375 45.51 36.325 68.391 3.5829 6.8599 6.9374 13.837 10.406 20.755 5.0149 11.261 3.7802 8.2368 9.2263 21.87 1.2005 3.0053 2.2151 6.0868 3.5181 9.0491 0.92819 2.1104 3.5449 7.8538 6.5779 14.464 1.3042-1.295 2.8114-2.383 4.4726-3.1853 3e-3 -0.0109 3e-3 -0.0336 7e-3 -0.0403 1.3905-2.5495 2.4588-3.525 4.2266-3.5858 0.58926-0.0203 1.2561 0.061 2.0386 0.21962 0.20644 0.13845 0.41044 0.28074 0.61495 0.4222 0.5547 0.0316 1.0707 0.33297 1.5911 0.53588 0.1993 0.0777 0.36852 0.21665 0.55294 0.32505 0.54342 0.29568 1.132 0.81926 1.7766 0.87126 1.3603 0.10969 2.7423-0.0753 4.1181-0.14004-0.88164-1.6828-1.7641-3.3652-2.6432-5.0493-17.792-34.081-35.258-68.332-53.191-102.34-11.349-21.725-23.336-44.469-35.24-65.968 0.0204 0.77949 0.0395 1.5592 0.0625 2.3384 0.2214 7.4803-7.3353 7.704-7.5566 0.22376-0.16514-5.5819-0.3087-11.165-0.56431-16.744-0.37826-0.64198-0.75647-1.2839-1.1364-1.9249zm93.08 188.45c0.22485 0.15022 0.45115 0.29811 0.68213 0.43873 0.18096 0.11016-0.26454-0.3972-0.47491-0.42219-0.0686-8e-3 -0.13771-0.0127-0.20722-0.0165zm10.292 9.1147c-0.18149 0.40622-0.37469 0.85471-0.57981 1.3544 0.11855 0.14014 0.29958 0.36368 0.56276 0.69401 0.12209 0.15326 0.24119 0.3088 0.3607 0.46406 0.11392 0.019 0.30422 0.0522 0.65525 0.11162 0.44032-0.0333 0.88056-0.0751 1.3203-0.12558 0.0385-0.0121 0.0751-0.0266 0.11524-0.0367-0.40989-0.7802-0.81984-1.5603-1.2299-2.3404-0.41051-0.0221-0.81493-0.0559-1.2046-0.12144zm-0.61908 1.4516c-0.0381 0.0934-0.0769 0.18944-0.11576 0.28628 0.13587 0.0436 0.26885 0.10936 0.39843 0.20464-0.11812-0.20457-0.20977-0.36211-0.28267-0.49092zm0.98598 1.0909c0.0308 0.0401 0.0621 0.0798 0.093 0.11989 0.0827-4e-3 0.16534-0.0122 0.24805-0.0176-0.1269-0.039-0.25387-0.0783-0.34107-0.10232zm-17.557 4.4602c0.0256 0.0279 0.0511 0.056 0.077 0.0837 4e-3 -0.0183 9e-3 -0.0365 0.0134-0.0548-0.0342-0.0108-0.0558-0.018-0.0904-0.0289zm23.374 2.5936c-0.0651 9e-3 -0.13023 0.0182-0.19533 0.0274 4e-3 5e-3 8e-3 0.01 0.0119 0.0145 0.18359 0.21156 0.36359 0.42651 0.54312 0.64182-0.1199-0.22788-0.23978-0.45579-0.35967-0.68368zm-6.7639 3.9284c-0.38276 0.0537-0.7666 0.10329-1.1426 0.18087-2.7114 0.55952-2.6461 0.55579-5.0002 1.0966-1.1239 0.18824-2.2457 0.39079-3.3719 0.56482-0.74043 0.11442-1.4903 0.16862-2.2278 0.30075-0.37472 0.0671-0.76641 0.19433-1.1612 0.32298 2.9852 6.4034 5.6039 11.956 6.8564 14.456 0.27 0.53893 0.545 1.0752 0.81752 1.6128h23.811c-0.22398-0.4263-0.4488-0.85225-0.67283-1.2785-1.3718 1.9114-4.6265 1.8311-7.0047-1.974-2.0288-3.2461-2.0499-3.0765-3.7662-6.7386-0.33234-0.70911-0.46394-1.5156-0.8847-2.1761-0.64119-1.0065-1.3107-0.90425-2.0645-1.6655-1.128-1.1392-2.1628-2.3672-3.2442-3.5507-0.31401-0.38454-0.62959-0.76779-0.94464-1.1514z" fill="none" stop-color="#000000" stroke-opacity="0" style="font-variation-settings:normal"/>
  </clipPath>
  <clipPath id="clipPath3568">
   <path d="m139.11 0.15916v131.99h5.7196v-131.99z" fill="none" stop-color="#000000" stroke-opacity="0" style="font-variation-settings:normal"/>
  </clipPath>
  <clipPath id="clipPath3579">
   <path d="m115.25 64.707-75.308 117.87 78.363 43.778 75.308-117.87z" fill="none" stop-color="#000000" stroke-opacity="0" style="font-variation-settings:normal"/>
  </clipPath>
  <clipPath id="clipPath4042">
   <path d="m7.3272 0.82734v131.46h125.37v-131.46z" fill="none" stop-color="#000000" stroke-opacity="0" style="font-variation-settings:normal"/>
  </clipPath>
  <mask id="mask-powermask-path-effect4187" maskUnits="userSpaceOnUse">
   <path id="mask-powermask-path-effect4187_box" d="m591.38-0.91887h111.77v71.145h-111.77z" fill="#fff"/>
   <path d="m621.94-5.8799c0 85.526-0.26728 85.526-0.26728 85.526" fill="none" stroke="#000" stroke-width=".26458px"/>
  </mask>
  <clipPath id="clipPath4828">
   <path d="m592.38 0.081132v4.7759c0.022-0.20877 0.0465-0.41736 0.0661-0.62632 0.19769-0.90053 0.12078-0.65565 0.39894-1.5136 0.0103-0.031825 0.0238-0.062702 0.0357-0.094051-3e-3 -0.073675 3e-3 -0.14281 0.0238-0.19844 0.0233-0.059271 0.11089-0.2262 0.0982-0.16381-0.0254 0.12489-0.0764 0.24283-0.12194 0.36225 0.0103 0.21764 0.10324 0.47711 0.11988 0.56069 0.0518 0.013261 0.077 0.020058 0.12766 0.033073-0.0164-0.25287-4e-3 -0.49889 0.1116-0.71572 0.1179-0.22082 0.25995 0.4275 0.39016 0.6413 0.29215-0.036657 0.58531-0.066825 0.87852-0.097152-0.54496-0.26903-1.1286-0.57387-1.727-0.92191-0.12613-0.073387-0.0146-0.29356 5e-3 -0.43822 0.0433-0.31895 0.0934-0.63874 0.18347-0.94775 0.0666-0.22832 0.0503-0.60915 0.28371-0.65474 3e-3 -6.0378e-4 6e-3 -9.5276e-4 9e-3 -0.0015502zm5.5826 0c0.14891 0.24041 0.30618 0.47792 0.35658 0.75138 0.0467 0.25333 0.0855 0.6277 0.11782 1.0635 0.8944-0.13441 1.7938-0.27005 2.6954-0.3638-0.0241-0.036908-0.059-0.072475-0.0584-0.1142 4e-3 -0.23334 0.0667-0.46231 0.0946-0.69401 0.0257-0.21408 0.0462-0.42845 0.0672-0.64285zm9.9989 0c0.0159 0.044412 0.0353 0.093707 0.0501 0.13643 0.20942-0.046533 0.3928-0.091385 0.55758-0.13436 8e-5 -7.5459e-4 0-0.0013129 0-0.0020672zm13.842 0c4e-3 0.023251 7e-3 0.048417 7e-3 0.076481v0.35037c-8e-5 0.14143-8e-5 0.28284 0 0.42426-1.6e-4 0.10099-3e-3 0.20183 0 0.30282v0.055294c0.0103 0.010885 0.01 0.037234 3e-3 0.037724-0.0167 6.429e-4 -0.0151 0.00144-0.0279 0.00207 0 0.00108 2.7e-4 0.00202 3e-3 0.0031 8e-3 -6.92e-5 0.0154-0.00149 0.0233-0.00103 0.0217 0.00127 0.0172 0.030264-4e-3 0.065629 0.0555 0.17801 0.0907 0.35931 0.0713 0.55035v0.11472c7e-3 0.01798 8e-3 0.023965 0.0161 0.048059 9e-3 0.02262 0.0199 0.04418 0.0279 0.067179 6e-3 0.017722 0.0298 0.04581 0.0151 0.05426-0.0257 0.013004-0.038 0.014666-0.0589 0.023771 0 0.086636 3e-5 0.17327 0 0.25993-1.6e-4 0.16691 0 0.33384 0 0.50074 0 0.22068-7e-3 0.44133-3e-3 0.66198 0.0151 0.1793 0.018 0.35653-0.0269 0.52917 0.0352 0.032871 0.0644 0.081691 0.0801 0.154 3e-3 0.01402 3e-3 0.023135 3e-3 0.028939 0.0891 0.06792 0.12004 0.14335 0.11369 0.26148 0 0.033217-3e-3 0.066552 0 0.099736 0 0.045732 8e-3 0.089354 0 0.13281 8e-3 0.038895 5e-3 0.075044-6e-3 0.10955 0.0238 0.061225 0.0236 0.09341-0.0124 0.082682 0.0117 0.17941-0.0222 0.3594-0.0739 0.53382 1.5e-4 0.014221 0 0.068678-3e-3 0.10232 0.0172 0.044871 0.0352 0.089542 0.0558 0.14573 0.01 0.059711 0.0249 0.11845 0.03 0.1788 0.0185 0.24623-0.113 0.4368-0.33435 0.45475 0 0.00442 0 0.00962-3e-3 0.013952 6e-3 0.011221 0.0122 0.021497 0.0161 0.033073 0.0122 0.025524 0.0496 0.053384 0.0341 0.076998-0.2667 0.40738-0.51686 0.53427-0.2403 0.39429-0.15769 0.21656-0.35083 0.48649-0.42272 0.13436-0.0238-0.1182-0.0364-0.23547-0.0217-0.35657 6e-3 -0.00573 0.0116-0.017468 0.0164-0.024289-0.0697-0.15297-0.10094-0.21758-0.14367-0.44648-8e-3 -0.044395-5e-5 -0.090227 0-0.13539 0-0.038765 3e-3 -0.03644 4e-3 -0.064079-0.0206-0.024913-0.0395-0.055495-0.0558-0.093017-0.0287-0.066148-0.0536-0.13377-0.0796-0.20102v0.21342c-6e-3 0.054528-5e-3 0.1078 0 0.16071 8e-3 0.024193 0.0188 0.054151 0.0238 0.069763 6e-3 0.017081-0.0132-0.029698-0.0222-0.049093 0.022 0.22902 0.11631 0.44642 0.15452 0.67438-0.0306 0.11436-0.0326 0.22529-0.0284 0.33693 0.0445 0.24939 0.0897 0.49849 0.13177 0.74827-0.0111 0.25628-0.0236 0.51259-0.0336 0.76895-0.0307 0.82884-0.014 1.6614-0.13179 2.4846-0.022 0.15487-0.0554 0.30201-0.0822 0.41548 0.0283-0.46724 0.0301-0.21606-0.0997-0.95756-0.065-0.3716-0.14227-0.65107-0.22839-0.85938 0.0146 0.10575 0.0459 0.20939 0.0656 0.31471 0.13385 0.71506 0.15147 0.8362 0.26252 1.5043-1.1e-4 4.23e-4 0 0.0011 0 0.0016 8e-5 4.5e-4 -8e-5 6.09e-4 0 1e-3 5e-3 0.03045 6e-3 0.03579 0.0114 0.06873 0.66569 3.9942-2.2641 5.4426-4.0669 3.5657-0.0661 0.19943-0.12139 0.36472-0.24183 0.72605-0.49109 1.4733-1.2746 2.3648-2.0939 2.7678-3e-3 0.64229-7e-3 1.2847-7e-3 1.927 0 0.97388 0.0278 1.9476 9e-3 2.9213-0.0175 0.87224-0.0799 1.7433-0.11988 2.6148-0.10179 1.0365-0.26181 2.0695-0.3297 3.1094-0.0489 0.74802-0.0414 1.4993-0.0961 2.2469-0.0367 0.50138-0.0985 1.0004-0.14726 1.5007-0.0431 0.30834-0.10679 0.61447-0.1292 0.92501-0.0164 0.22303-0.0398 1.8552-0.014 2.1751 0.0495 0.60111 0.13674 1.1985 0.21704 1.7963 0.205 1.5264 0.42195 2.5642 0.71726 4.1904 0.4079 2.1153 0.44701 2.1033 0.69453 4.3212 0.0462 0.41328 0.087 0.82804 0.092 1.2439 8e-3 0.65805-0.0385 1.243-0.11628 1.8293 0.10541-0.0817 0.21487-0.15668 0.33126-0.21756 3e-3 -0.0088 7e-3 -0.01749 0.0103-0.02635 0.0127 0.0016 0.0257 0.0021 0.0382 0.0036 0.34452-0.1698 0.72832-0.25102 1.1224-0.23358 0.42455 0.01878 0.85918 0.15245 1.2661 0.40308 0.90577 0.05917 1.803 0.15703 2.6551 0.44907 0.62113 0.21283-0.1392 1.1598-0.0424 1.5627 0.0516-6e-3 0.0955-0.0055 0.11938 0.01138 0.0373-0.01299 0.0734-0.02254 0.0873 0.0026 0.0928 0.16538 0.44212 1.6554 0.46199 1.7368 0.0679 0.34455 0.31631 1.4198 0.0956 1.6071-0.33652 0.28568-0.70546 0.52433-1.0888 0.74259 3e-3 0.01474 8e-3 0.02918 0.0114 0.04392 0.0593 0.26774 0.13464 0.60556 0.20672 0.9555 0.39012 0.45795 0.74009 1.0621 1.0128 1.8268 0.12888 0.3613 0.26879 0.73932 0.37102 1.1064 0.18786 0.6746 0.20987 1.3739 0.21085 2.0691 0.0482 0.61699 0.10985 1.2414 0.0434 1.8598-0.0334 0.31132-0.0811 0.62124-0.13798 0.92914-0.0273 0.14798-0.0427 0.5691-0.11422 0.43667-7e-3 -0.01278-0.0119-0.02627-0.018-0.03928 0.0164 0.41465-0.0177 0.93006-0.11938 1.2692 5e-3 0.05497 7e-3 0.1097-8e-3 0.16536-3e-3 0.0061-3e-3 7e-3 -4e-3 0.01241-8e-5 0.02429 0 0.04858 0 0.07286v0.22686c-8e-5 0.08066 0 0.1617 0 0.24236-8e-5 0.04237 0 0.08475 0 0.12712 0.0681-0.0032 0.13628-0.0081 0.20412-0.0041 8e-3 5.3e-4 0 0.01725 0 0.02585 1.6e-4 0.0267 1.1e-4 0.0534 0 0.0801 0 0.09826 0 0.19692-5e-3 0.29507-8e-5 0.02606 0 0.05198 0 0.07803 0 0.02461 6e-3 0.04937 4e-3 0.0739 0 0.0088-0.013 0.015-0.0119 0.02376 5e-3 0.03207 0.0362 0.06115 0.0295 0.09302-0.0111 0.05956-0.0565 0.10732-0.077 0.16433-5e-3 0.014 0.0199-0.02201 0.03-0.03307-0.0955 0.1075-0.0738 0.24555-0.0718 0.37879 3e-3 0.06108 5e-5 0.02677 0.014 0.1018 0.0122 0.13803-0.0156 0.28048-0.0682 0.40773-0.0214 0.05513-0.0436 0.11042-0.0646 0.1664 0.0109 0.05195 0.0193 0.10437 0.0341 0.15555 0.0495 0.16962-0.0214 0.26709-0.1116 0.27543-8e-5 0.0052 3e-5 0.01032 0 0.01551h80.546v-69.145zm-23.284 3.3719c3e-3 0.051469 3e-3 0.098964 5e-3 0.15038 0.0138-0.045722 0.0305-0.096875 0.046-0.14624-0.0177-0.00161-0.0329-0.00246-0.0506-0.00414zm23.49 1.5797c-5e-3 0.010779-0.0103 0.021577-0.0164 0.03204 7e-3 0.00287 0.0183 0.010062 0.0238 0.011885 0-0.014682-5e-3 -0.029267-7e-3 -0.043925zm-23.444 0.16898c5e-3 0.25515 0.0111 0.53099 0.0135 0.71624 0.01 0.89475 0.0114 1.7898 8e-3 2.6846 6e-3 -0.3601 0.0101-0.68309 0.0161-1.2439 9e-3 -0.71079-6e-3 -1.4218-0.0331-2.1322 0-0.00736-3e-3 -0.016174-4e-3 -0.024805zm23.292 0.50126c3e-3 0.023651-3e-3 0.022659 3e-3 0.05426 3e-3 0.026305 6e-3 8.202e-4 9e-3 -0.037207-3e-3 -0.00924-8e-3 -0.010554-0.0114-0.017052zm-0.16123 1.11c0.0238 0.00917 0.0353 0.059575 0.03 0.1726 0 0.027305-8e-3 -0.054239-0.013-0.081132-0.10914 0.052803-0.15505 0.07665-0.21188 0.10542 0.0825-0.11331 0.15515-0.21214 0.19481-0.19689zm-29.317 1.0852v6.6823c0.0745-0.23421 0.15682-0.4788 0.22479-0.70383 0.0286-0.68959 0.0661-1.3787 0.0858-2.0691 0-0.1598 0.0143-0.31965 3e-3 -0.47904-0.0629-0.8761-0.21301-1.7448-0.2744-2.621-0.0109-0.15492-0.0246-0.51916-0.0388-0.80925zm28.1 43.345c0.0188-0.08407-0.0362 0.16847-0.0543 0.2527 0.0188-0.08415 0.036-0.16859 0.0548-0.2527zm0.0946 0.28008c-0.0438 0.0052-0.0987 0.01963-0.16433 0.04289-0.0681 0.30735-0.13401 0.61517-0.19997 0.92294 0.38534-0.50459 0.60237-0.86838 0.48471-0.95446-0.0512 0.01786-0.10562 0.04322-0.11731 0.0057-3e-3 -0.0052-1.6e-4 -0.01154-3e-3 -0.01707zm-28.194 1.8598v15.843h7.0016c-0.29535-0.45185-0.57515-0.88364-0.97152-1.4955-1.2916-2.0717-0.93348-1.4384-1.8609-3.0825-0.56822-1.0074-1.1636-2.0224-1.6397-3.0799-0.0972-0.21582-0.17124-0.44132-0.25683-0.66198-0.0968-0.3658-0.20773-0.72836-0.29044-1.0976-0.078-0.34806-0.0802-0.70944-0.15192-1.0589-0.0568-0.2771-0.15433-0.54585-0.19844-0.82527-0.12549-0.79505-0.15012-1.0163-0.14211-1.3519-4e-3 -0.01447-8e-3 -0.02893-0.0124-0.04341-0.0285-0.10251-0.0561-0.22871-0.0832-0.36845-0.46373-0.92642-0.92972-1.8516-1.3942-2.7776zm7.2946 3.9326c-0.092 0.05866-0.18195 0.12082-0.27283 0.18138 0.0156 0.07684 0.0304 0.15394 0.0449 0.23099 0.0637-0.01601 0.12777-0.02955 0.19121-0.04651 0.12229-0.03269-0.0101-0.51472 0.0584-0.24495-7e-3 -0.0404 0.013-0.14298-0.0217-0.12092zm4.1502 7.4657c-0.0138 0.0069-0.0281 0.01474-0.0419 0.02119 0.0573 0.22603 0.11522 0.44951 0.13641 0.53692 0.0787 0.32444 0.15918 0.64848 0.23048 0.97462 0.0214 0.09792 0.1479 0.31028 0.048 0.29662-0.16195-0.02228-0.30861-0.48646-0.35862-0.3421 0.0516 0.07897 0.11645 0.17938 0.17106 0.26252 0.0625 0.04528 0.12668 0.09006 0.16896 0.13952 0.20114 0.32413 1.4113 2.0302 0.79841 2.4009-0.0903 0.05458-0.18196 0.10594-0.27493 0.15451h4.8483c-0.0501-0.3556-0.0868-0.71374-0.12247-1.0738-0.0357-0.21035-0.0796-0.41976-0.12198-0.62942-0.33168 0.33407-0.69947 0.60571-1.1462 0.71675-0.35253 0.08763-0.69054-0.0181-1.0232-0.1912 0.11928 0.0044 0.24445-0.01323 0.37725-0.06201 0.64965-0.23869 1.1487-0.7284 1.635-1.2444-0.0661-0.3178-0.13068-0.63586-0.18293-0.9555-0.80044 0.01905-1.6036-0.0016-2.4055-0.03566-0.0217 0.05063-0.0412 0.10193-0.0651 0.15193-0.17024 0.35638-0.66646 0.21664-1.1209-0.03307 0.0293 0.0789 0.0643 0.1623 0.0718 0.22479 0.16031 0.31666 0.41132 0.93507 0.77618 1.3927 0.3044 0.18792 0.60659 0.40158 0.91313 0.5612-0.36351-0.01349-0.665-0.24937-0.91363-0.5612-0.15896-0.09814-0.31827-0.19044-0.47956-0.25786-0.1352-0.19043-0.28141-0.37325-0.40566-0.57102-0.25106-0.39978-0.46267-0.82016-0.63354-1.2552-0.0502-0.04402-0.099-0.08765-0.14573-0.13074-0.1088-0.05662-0.21715-0.11408-0.32351-0.17518-0.14946-0.08586-0.31917-0.16941-0.40979-0.31574zm1.6697 0.96635c-3e-3 0.0123-3e-3 0.02492-3e-3 0.03721 0.0528 0.01421 0.20664 0.06863 0.15864 0.04237-0.0511-0.02796-0.10398-0.05254-0.15554-0.07958zm15.83 2.9786c-3e-3 0.0016-3e-3 0.0035-6e-3 0.0052 1.1e-4 5.29e-4 0 5.29e-4 0 0.0011 4e-3 0.0057 6e-3 9e-3 0.0103 0.01394 0-0.0067-3e-3 -0.01341-4e-3 -0.02016zm-0.39068 0.39791c-0.023 0.01675-0.05 0.02238-0.0775 0.02222-3e-3 0.02651-3e-3 0.05308-5e-3 0.07958h0.0734c5e-3 -0.02812 0.0124-0.056 0.0161-0.08475 0 0.0024-3e-3 0.0091-3e-3 0.0067 0-0.0026 0-0.01585-3e-3 -0.02376z" fill="none" stop-color="#000000" stroke-opacity="0" style="font-variation-settings:normal"/>
  </clipPath>
  <mask id="mask-powermask-path-effect4887" maskUnits="userSpaceOnUse">
   <path id="mask-powermask-path-effect4887_box" d="m750.2-0.82729h82.903v133.68h-82.903z" fill="#fff"/>
   <path d="m767.06-20.847v172.39" fill="none" stroke="#000" stroke-width=".26458px"/>
  </mask>
  <clipPath id="clipPath5246">
   <path d="m767.02 0.1726c3e-3 0.003476 3e-3 0.00681 4e-3 0.010335 0-0.003519 1.5e-4 -0.006813 0-0.010335zm0.0164 0c3e-3 0.021401 7e-3 0.045803 0.0103 0.067179 4e-3 0.010849 0.0109 0.024599 0.0146 0.034623 0.0235 0.069186 3e-3 0.26404 0 0.35192 3e-3 0.11088 3e-3 0.22188 3e-3 0.3328v0.59015c5e-3 0.014403 0 0.00473 0.014 0.043925 0.0101 0.066322 0.014 0.13355 0.0284 0.19895 6e-3 0.025993-8e-3 -0.053999-3e-3 -0.079582 5e-3 -0.016044 0.0106 0.032048 0.0124 0.048576 0.018 0.12526 0.0233 0.23767 0.0161 0.36277-0.0238 0.18931-8e-3 0.057015-3e-3 0.041341 3e-3 -0.00945 1.8e-4 0.039902 0 0.029972 5e-5 -0.00261-3e-3 -0.081508 0 0.022221v0.16847c5e-5 0.0085 0 0.017338 0 0.025838 0 0.26058-0.0524 0.46772-0.13539 0.6258v0.38602c-3e-3 0.10106-7e-3 0.20231 3e-3 0.30334 6e-3 0.155 0.0103 0.11216-0.0161 0.28629-3e-3 0.015846-7e-3 0.031181-0.0119 0.046509 0 0.00217-3e-3 0.00786-4e-3 0.00568-3e-3 -0.012023-3e-3 -0.049305-5e-3 -0.037207-5e-3 0.018132 0 0.037598 0 0.056327 8e-5 0.14326 0 0.28668 0 0.42995 0 0.070357 3e-3 0.14054-3e-3 0.21084 0 0.0023 3e-3 0.00439 3e-3 0.00672 0.0298 0.29897 3e-3 0.4889 0.0279 0.27285 0-0.00694-3e-3 -0.017669 0-0.023254 0-0.00497 0 0.01039 3e-3 0.015502v0.00775c-4e-3 0.055379 0.0188 0.14296 0.0196 0.17157 0 0.029052 8e-5 0.065138 0 0.10232 4e-3 0.00935 8e-3 0.018463 0.0119 0.027905 0.0646 0.1694 0.11327 0.35151 0.1049 0.53433 0.0306 0.078288 0.0119 0.27868 7e-3 0.3421-0.0103 0.05812-0.0185 0.11644-0.031 0.17415-4e-3 0.017589-0.0581 0.00845-0.0259 0.047542-3e-3 0.066128 0.01 0.13287 6e-3 0.19895-0.0196 0.33095-0.0119 0.27396-0.0868 0.49816-0.0455 0.10888-0.0546 0.13093-0.0682 0.1633 0.4082 2.1084-1.0849 3.4606-2.8727 2.928-0.0568 0.33814-0.1147 0.67661-0.17984 1.034-0.31625 1.7351-0.89635 1.2519-0.16899 1.7167 3e-3 0.33833 4e-3 0.6766 8e-3 1.0149 0.10473 0.68492 0.0579 2.0858 7e-3 0.41755-4e-3 -0.13913-5e-3 -0.27836-7e-3 -0.41755-0.0285-0.18644-0.0661-0.33177-0.12041-0.33331-4.1338-0.11692-8.2652 0.11646-12.396 0.38654 0.014 0.45112 0.0267 0.90228 0.0403 1.3534 11.17 0.26162 23.803 0.58717 12.591 1.4071-5.4342 0.39741-9.4618 1.0891-12.5 1.6929 0.34298 11.924 0.58182 23.851 0.64802 35.784 0.10655 19.189-0.28718 12.718 0.16227 20.157 3.1959 2.0827 5.8378 6.3571 6.5552 13.001 0.34015 3.1502 0.43559 2.3821 1.0862 5.2374 0.51795 2.273 5e-3 0.68425 0.60254 2.3694 0.11692 0.34314 0.26606 0.67683 0.35038 1.0294 0.67763 2.8325 1.6042 7.1027 2.1027 10.13 0.14158 0.85987 0.79288 5.158 0.82217 6.6533 0.0209 1.0654-0.0703 2.1301-0.10541 3.1952-0.21476 0.99538-0.49332 1.9789-0.64439 2.9859-0.0411 0.27394 0.0883-0.60678 0.3121-0.76998 0.14623-0.10662-3e-3 0.36165 0 0.5426 0.0132 0.83131 0.0388 1.662 0.0661 2.4929 0.23715 0.12537 0.42056 0.4377 0.4 0.93586-8e-5 1e-3 0 3e-3 0 4e-3 -4e-3 -0.0414 3e-3 0.0556 3e-3 0.0811 3e-3 0.069 3e-3 0.12199 0 0.19172 0.042-0.011 0.0848-0.0171 0.12763-0.0171 0.3324 1e-5 0.66659 0.33077 0.67334 0.99219 3e-3 0.20619-0.029 0.41071-0.0635 0.61444 0.0333-5e-3 0.0666-0.013 0.10075-0.0119 0.12292 5e-3 0.24855 0.0568 0.36277 0.15244-0.0198-0.0858-0.0473-0.15384-0.13589-0.36897-0.31483-0.76454 0.0497-1.2503 0.4904-1.2082 0.26446 0.0252 0.55629 0.24044 0.74518 0.69918 0.1652 0.40122 0.15229 0.35079 0.24958 0.85266 0.2604 0.0975 0.48085 0.40698 0.48681 0.93431 0.23711 0.10683 0.44116 0.38873 0.47955 0.86558 0.0177 0.22211 0.081 0.55591-0.0362 0.76068-0.0363 0.0635-0.0799 0.11908-0.123 0.16743-3e-3 0.0193-5e-3 0.0384-8e-3 0.0589 3e-3 -5e-3 3e-3 -0.0103 4e-3 -0.0155 3e-3 -6e-3 -1.1e-4 9e-3 -3e-3 0.0186-0.0101 0.0313-0.0172 0.064-0.0254 0.0956 3e-3 -4e-3 3e-3 -3e-3 6e-3 -7e-3 5e-3 -5e-3 3e-3 -0.0266 3e-3 -0.0196v0.0186c8e-3 -0.0357 0.0106-0.0498 0.0124-0.0662-5e-3 0.0308-6e-3 0.0537-0.0124 0.0868 4e-3 0.10882 4e-3 0.21785 5e-3 0.3266 0.01 0.13349-0.0294 0.26359-0.047 0.39429-4e-3 0.0263 5e-3 0.0722 7e-3 0.0977 0.013 0.10219 5e-3 0.20538 5e-3 0.30799 0 0.12448 3e-3 0.24913 0 0.37362-1.6e-4 0.0356-8e-5 0.0713 0 0.10697 9e-3 6e-3 0.0188 0.0112 0.0279 0.0176 0.0199 0.11017 0.0119 0.21922 4e-3 0.32918 0 4e-3 1e-4 9e-3 3e-3 0.0134 5e-3 0.0456 0 0.094 0 0.14004v0.23458c-2.1e-4 0.23274-0.0433 0.42224-0.11162 0.5731 0.0169 0.0877 0.0251 0.18335 0.0238 0.25941 0 0.0193-5e-3 0.0382-7e-3 0.0574 3e-3 -8e-3 7e-3 -0.0148 0.0156-0.0202 0.0217-0.0164 0.0156 0.0522 0.0217 0.0786 8e-3 0.0327 0.0412 0.18381 0.0372 0.22169-6e-3 0.0541-0.0106 0.0792-0.0151 0.11782 0.0124-6e-3 -0.0143 0.0851 0 0.22014 6e-3 0.0493 0.0175 0.0973 0.0265 0.14625 0.0114 0.18002 0.0206 0.23473 0.0164 0.39688 0 0.0355 4e-3 0.0728-7e-3 0.10645-3e-3 6e-3 -5e-3 0.0105-7e-3 0.016v5.2e-4c3e-3 0.0811 7e-3 0.16187 3e-3 0.24185-9e-3 -0.0118-0.0238-4e-3 -0.0408 0.0103h0.0387c0-3e-3 3e-3 -7e-3 3e-3 -0.0103 0 1e-3 1.1e-4 8e-3 0 0.0103h65.075v-131.68zm-0.0997 4.469c3e-3 0.00519 3e-3 0.010374 5e-3 0.015502v-0.00568c0-0.00351-5e-3 -0.013256-4e-3 -0.00982zm0.0744 0.72399c-3e-3 0.088475-3e-3 0.14109 3e-3 0.00672 0-0.00228-3e-3 -0.00445-3e-3 -0.00672zm-0.42582 0.84439c0.0608 0.13412 0.11408 0.26632 0.1607 0.39636 0.13994 0.030865 0.22924 0.010184 0.19794-0.12092-0.0393-0.16474-0.18161-0.23506-0.35864-0.27544zm0.50281 120.28c-9e-3 -9e-3 -3e-3 0.15543-0.0367 0.41393 0.052-0.097 0.0771-0.20811 0.0635-0.31575-0.0156-0.063-0.023-0.0945-0.0268-0.0982zm-0.0605 0.45165c-0.1339 0.14219-0.25495 0.20494-0.14676 0.14986 0.0616-0.0372 0.10819-0.0908 0.14676-0.14986zm-0.0915 1.633c-3e-3 0.0356-3e-3 0.0604-5e-3 0.0801 0.014 9e-3 0.0292 0.0163 0.0429 0.0253-9e-3 -0.0317-0.0214-0.0674-0.0377-0.10543zm0.0697 0.31213c0-7e-3 3e-3 0.0146 5e-3 0.0217 0-7e-3 -3e-3 -0.0145-3e-3 -0.0217zm5e-3 0.0217c0 2e-3 0 4e-3 3e-3 6e-3 -2.1e-4 -2e-3 0-4e-3 0-6e-3zm0 6e-3c3e-3 0.0286 6e-3 0.0573 0.0114 0.0858 0-7e-3 3e-3 0.0143-3e-3 -0.0475-3e-3 -0.0126-5e-3 -0.0256-8e-3 -0.0382zm8e-3 2.6898c0 6e-3 -6e-3 0.0172-8e-3 0.0238 3e-3 -8e-3 7e-3 -0.0153 0.0103-0.0233zm-0.0146 0.0336c-0.0148 0.0372-0.0309 0.0743-0.0486 0.11058v0.00653c-0.0159 0.033-0.0326 0.0655-0.046 0.0992h0.0222c0.01-0.0228 0.0169-0.0389 0.0269-0.0636 3e-3 0.0213 5e-3 0.0424 7e-3 0.0636h0.0103c0-0.0104-1.8e-4 -0.0168-3e-3 -0.032-3e-3 -0.0148-7e-3 -0.0246-0.0119-0.0434-3e-3 2e-3 -3e-3 4e-3 -3e-3 6e-3 -1.6e-4 -2e-3 0-4e-3 0-6e-3h3e-3v-3e-3h-3e-3v-1e-3c0.0185-0.0502 0.0353-0.0973 0.0465-0.13642z" fill="none" stop-color="#000000" stroke-opacity="0" style="font-variation-settings:normal"/>
  </clipPath>
  <clipPath id="clipPath2948">
   <path d="m74.707 43.713v42.96c0.7562-6.7737 1.4141-13.555 1.9513-20.351 0.46287-7.5242 0.45706-15.074 0.74518-22.608zm39.089 0c-3e-3 0.01336-6e-3 0.02677-7e-3 0.04031 6e-5 0.0063 8e-3 -0.02341 0.0119-0.03514 1e-3 0.04327 2e-3 0.08689 2e-3 0.13022-5e-5 0.01042-1e-3 0.02064 0 0.03101 0 0.0024 2.7e-4 -0.0042 2e-3 -0.0067 1e-3 -0.0038-1e-3 -0.01508-5.3e-4 -0.01138 4e-3 0.0182 7e-3 0.04622 0.0124 0.07286 4e-3 -6e-3 4e-3 -0.0055 9e-3 -0.01291 7e-3 -0.0321 0.018-0.06341 0.0212-0.09612 2e-3 -0.01654-3e-3 -0.03319-6e-3 -0.04961 0.0119 0.03727 0.0238 0.07496 0.0212 0.11472v0.14211c-3e-5 0.01344 0 0.02687 0 0.04031-3e-5 0.02143-2.5e-4 0.0442 0 0.06098 9e-5 0.02233 2e-3 0.05267-5.3e-4 0.07441 1.8e-4 7.94e-4 -2.1e-4 0.0013 5.3e-4 0.0021h-5.3e-4c4e-3 0.02925 3e-3 0.05858-3e-3 0.0894-2e-3 0.0093-5e-3 0.01386-7e-3 0.02066 2.6e-4 0.01241 8e-4 0.02342 5.3e-4 0.04754-3e-3 0.02849-2e-3 0.05835-0.0119 0.08527 0 0.0011-1e-3 -3e-3 -2e-3 -0.0021-2e-3 7e-3 -5.3e-4 0.01434-5.3e-4 0.0217 3e-3 0.02297 9e-3 0.04628 4e-3 0.06873-5e-3 0.02281-0.0155 0.04545-0.0253 0.06821 5.3e-4 0.0075-5.2e-4 0.0071 3e-3 0.04496-4e-3 0.03186-8e-3 0.06383-0.0134 0.0956-2e-3 0.01027-7e-3 0.01955-0.0109 0.02945-2e-3 0.0066-0.013 0.04122-0.015 0.04754 2e-3 0.04642 3e-3 0.09277-7e-3 0.13849-3e-3 0.01942-6e-3 0.03898-9e-3 0.05839-2e-3 0.0099-1.8e-4 0.02109-5e-3 0.02946v5.29e-4c0 0.0019 1.8e-4 0.0038 0 0.0057-5.3e-4 0.0049-2.7e-4 0.0096-2e-3 0.01447 7.9e-4 0.0122 2.6e-4 0.01915 2e-3 0.04547-3e-3 0.05449-0.0104 0.1107-0.0274 0.1633 7.9e-4 0.07091 2e-3 0.14164 7e-3 0.21239 4e-3 0.10585 0.0225 0.2117 0.0217 0.31781-1e-3 0.01958-3e-3 0.0439-5e-3 0.0646-2e-3 0.04191-5.3e-4 0.08409 0 0.12609 3e-5 0.0028 2e-5 0.0055 0 0.0083-3e-3 -0.01199-7e-3 -0.02831-6e-3 -0.02119 2e-3 0.0071 3e-3 0.01781 5e-3 0.02739v5.29e-4c1.6e-4 5.29e-4 1.1e-4 0.0011 5.3e-4 0.0016 1e-4 7.93e-4 0 0.0016 0 0.0026 1.4e-4 -7.94e-4 1e-3 -0.0011 1e-3 -0.0016 2.2e-4 0.0011 3e-5 0.0021 5.3e-4 0.0031h5.3e-4c1e-4 2.64e-4 -4e-5 7.93e-4 0 0.0011-4e-5 7.94e-4 8e-5 0.0011 0 0.0021-6e-5 0.0024-1.8e-4 0.0048 0 0.0072 5e-5 0.0019-9e-5 -0.0021 5.3e-4 -0.0052 9e-3 0.0342 0.019 0.07194 0.0212 0.10336 3e-3 0.03707 4e-3 0.07394 4e-3 0.1111 1e-3 0.08518-8e-3 0.04681 1e-3 0.08165-8e-3 -0.0286-5e-3 -0.06423-0.0253-0.08578-8e-3 -0.0079-0.0168-0.0173-0.0248-0.02635 2e-3 0.01714 5e-3 0.03383 4e-3 0.05478-2e-5 0.0031 1e-5 0.0062-5.3e-4 0.0093 0.0102 0.02217 0.0189 0.04458 0.0253 0.07183 8e-3 0.0086 0.0169 0.01632 0.0269 0.0279 0.0197 0.02331 0.0161 0.04725 5.2e-4 0.0708 8e-4 0.0254 3e-3 0.05083 1e-3 0.07596-2e-3 0.02535-5e-3 0.05069-8e-3 0.07596-1e-3 0.0047-2e-3 0.0093-3e-3 0.01394v0.09719c0 0.02114-5e-5 0.04242 0 0.06356 5e-5 0.03055-5e-5 0.06092 0 0.09147 1.3e-4 0.02447 1e-3 0.04891 1e-3 0.07338 0 0.0089 5e-3 0.01969 0 0.02687-5.3e-4 7.93e-4 -5.3e-4 7.93e-4 -1e-3 0.0016 5.2e-4 3e-3 5.2e-4 7.94e-4 1e-3 0.0036-0.0106 0.01442-0.0115 0.01315-0.0217 0.02635-4e-5 0.02273 1e-5 0.04547 0 0.06821 8e-3 -0.03001 0.0168-0.05983 0.0217-0.09043 7e-3 0.04555 0.0103 0.07947 0.0103 0.06149 1e-3 0.02508-5.3e-4 0.04574-4e-3 0.0677-2e-3 -0.0073-4e-3 -0.01675-4e-3 -0.01241 1e-3 0.0062 3e-3 0.01246 4e-3 0.0186h5.3e-4c1.2e-4 -0.0013 5.3e-4 -0.0024 1e-3 -0.0036 5.3e-4 0.0013 2e-3 0.0024 2e-3 0.0036-1.6e-4 0.0013-5.3e-4 0.0024-1e-3 0.0041-5.3e-4 -0.0013-2.7e-4 -0.0027-2e-3 -0.0041-7.9e-4 0.0081 2.7e-4 0.01482-5.3e-4 0.02429-7.9e-4 0.0059-7.9e-4 -0.0076 3e-3 -0.01757 8e-3 0.03441 0.0182 0.069 0.015 0.1049v0.22324c0 0.03819 2e-5 0.076 0 0.1142 0 0.0259 2.1e-4 0.05213 0 0.07803-7.9e-4 0.02553-2.5e-4 0.05101-2e-3 0.07648 2e-3 0.0067 2e-3 0.01344 3e-3 0.02016v5.29e-4c2.2e-4 0.0019 3e-5 0.0034 5.3e-4 0.0052 2.5e-4 0.0011 2.7e-4 0.0019 2e-3 0.0026v5.29e-4l5.3e-4 5.29e-4c6e-5 2.65e-4 -9e-5 0.0029 0 0.0031 1.5e-4 7.93e-4 3e-5 0.0016 5.3e-4 0.0031 6e-3 0.01717 0.0127 0.03427 0.0181 0.05168 2e-3 0.0057-1.8e-4 0.01249 5.3e-4 0.0186 1.8e-4 0.03472-2e-3 0.06915-5.3e-4 0.10387-1e-3 0.04173 0.01 0.08449 5.3e-4 0.12609-3e-3 0.01341-7e-3 0.02625-0.0119 0.03927 0 0.0019 2e-5 0.0044 0 0.0062-5e-5 0.03324-1.4e-4 0.06649 0 0.09973 5e-5 0.01069 8e-4 0.02141 0 0.03204-5e-3 0.05259-0.011 0.0908-1e-3 0.02119 5.3e-4 -0.0033-4e-3 0.02843-5.3e-4 0.0093 0 0.02929 6e-3 0.05655 5e-3 0.0863-5.3e-4 0.04363-6e-3 0.05895-0.015 0.09664-7e-3 0.02082-0.0145 0.04177-0.0222 0.06253-5e-3 0.07991-0.0146 0.16389-0.0496 0.23616v0.03359h4e-3c0 0.25003-0.1402 0.36203-0.2682 0.34468-0.0755 0.12733-0.16984 0.18894-0.25425 0.19327 9e-3 0.13201 0.0161 0.26408 0.0274 0.39584 0.0134 0.1577 0.0333 0.31484 0.0496 0.47232h5.3e-4c0.0195 0.1953 0.0125 0.36763-8e-3 0.52555 6e-3 0.0434 0.0114 0.09706 0.0243 0.26303 2e-3 0.09447-0.0102 0.1881-0.0155 0.28215 8e-3 -0.0029 8e-3 0.01339 0.0119 0.02016 7e-3 0.03853 0.0172 0.07638 0.0222 0.11524 0.0108 0.07664 0.0306 0.24489 0.0274 0.34623 3e-3 0.01265 8e-3 0.03279 9e-3 0.03928 0.11645 0.3186 0.2314 0.63664 0.19947 0.9834-0.0145 0.1577-0.0647 0.25775-0.12092 0.39377-0.71438 1.7291-1.1025-2.5558-1.7167-0.78858-0.0511 0.14698-0.0384 0.23928-0.0243 0.38706 7.9e-4 0.0024 2e-3 0.0037 3e-3 0.0062 4e-3 0.01283 2e-3 0.05413 5.3e-4 0.04083-2e-3 -0.01947-2e-3 -0.02905-4e-3 -0.04651-0.0583-0.19628-0.14633-0.3831-0.18552-0.58549-0.0833-0.40962 0.0445 0.27422-0.0238-0.62787-5e-3 -0.06857-0.0156 0.11506-0.0243 0.19792-0.0196-0.05042-0.0751-0.10798-0.0248-0.13229-0.0129-0.08833-0.0295-0.17644-0.0398-0.2651-0.0125-0.10552-2e-3 -0.22392 0.0108-0.3297 0-0.0024 2e-3 0.0041 3e-3 0.0062 6e-3 0.0191 0.0176 0.07718 0.0155 0.05736-4e-3 -0.03869-0.0147-0.07588-0.0217-0.1142-0.011-0.06422-0.022-0.12872-0.031-0.19327-5e-3 -0.03795-0.013-0.07589-0.0124-0.1142 1.8e-4 -0.01024 0.0174-0.01688 0.0155-0.02687-0.0125-0.05252-0.0369-0.10138-0.0558-0.15193-0.0243-0.08892-0.0507-0.17734-0.0734-0.26665 0-0.0016 3e-3 0.0029 5e-3 0.0031 1.3e-4 -0.01114 5.3e-4 -0.02246 5.3e-4 -0.03359-0.0667-0.2002-0.17868-0.38564-0.21601-0.59635 3e-3 -0.08413 8e-3 -0.16803 0.0124-0.25218-0.0147-0.03952-0.0339-0.0791-0.0336-0.12092 4e-5 -0.0065 2e-3 -0.02088 3e-3 -0.02894-9e-3 -0.01738-0.0312-0.04312-0.10077-0.1571-0.0605-0.12463-0.12409-0.24696-0.18138-0.3731-4e-3 -0.0088-6e-3 -0.01836-9e-3 -0.02739-0.0181 0.61478-0.078 1.2275-0.11834 1.8412-0.0107 0.23079-0.026 0.4615-0.032 0.69246-0.0174 0.70115 0.01 1.4034 0 2.1048h5.3e-4c-0.0153 1.0824-0.47149 1.7208-1.0025 1.9172 3e-5 0.47025 9e-5 0.9405 0 1.4108-1e-5 0.6738 2e-3 1.3473 0 2.0211-3e-3 1.053-4e-3 2.106 8e-3 3.159-1e-3 0.63316 0.0318 2.0075-0.0408 2.5099 0.27666 1.802 0.12706 3.548-0.15296 5.3475-0.18348 1.1791 0.15344 1.201-0.34882 1.0997v8.6155c-1e-5 1.5842-5e-5 3.1685 0 4.7527 0 0.35159 2e-5 0.70315 0 1.0547 0.29648 0.13799 0.60465 0.36318 0.90589 0.70745 0.25609 0.29268 0.2419 0.2726 0.50488 0.59221 0.0509 0.06194 0.11128 0.11809 0.15038 0.1881 0.0379 0.06781 0.0736 0.13723 0.10955 0.20619 0.25237-0.34637 0.59293-0.5209 0.93483-0.5209 0.66816 0 1.3364 0.66146 1.3364 1.9844 0 0.31098 8e-3 0.28954-0.0429 0.67438-0.0119 0.09175-0.0352 0.18144-0.0496 0.27285-2e-3 0.01204-2e-3 0.04776 2e-3 0.03617 6e-3 -0.02064-4e-3 -0.04601 7e-3 -0.06459 8e-3 -0.01249 4e-3 0.02894 6e-3 0.04341 9e-3 0.11515 0.0105 0.2308 0.0119 0.34623 1e-3 6.9e-5 2e-3 -5.29e-4 3e-3 -5.29e-4l2e-3 -0.0011c0.0889 0.0086 0.18609 0.07899 0.25424 0.22479 0.0463-0.03226 0.0964-0.04879 0.14418-0.04082 0.11652 0.01942 0.21364 0.1543 0.17518 0.38499-6e-3 0.03809-8e-3 0.05305-0.0217 0.09405-6e-3 0.01699-0.0147 0.03281-0.0207 0.04961-7.9e-4 0.0031-2.6e-4 0.0065-1e-3 0.0098-7e-3 0.02495-0.0147 0.04957-0.0217 0.07441-9e-3 0.0287-0.0127 0.05783-0.016 0.08733 0.20755 0.20906 0.0456-0.48876 0.19224-0.45424 0.022 0.0052 0.0511 0.02666 0.0894 0.0708 0.0574 0.06614 0.095 0.09594 0.093 0.20309-1.2e-4 0.01791-5.3e-4 0.03617 0 0.0553 1e-3 0.03897-2e-3 0.07784-3e-3 0.11679-7e-3 0.0132 2.7e-4 8e-6 4e-3 0.03255 2.6e-4 0.0024 7.9e-4 0.0043 1e-3 0.0067 1e-3 0.0029 1e-3 7e-3 3e-3 0.0093 6e-3 0.03162 0.0141 0.06278 0.0191 0.09457 1e-3 0.0055 0 0.01103 0 0.01654v1.6051c0 0.05059 2e-5 0.10132 0 0.15193-4e-5 0.03203-7e-5 0.06409 0 0.09612 0 0.0011 1.3e-4 0.02439-5.3e-4 0.02997-9e-5 7.94e-4 5e-5 0.0016 0 0.0026 5.3e-4 0.0045 2e-3 0.0077 1e-3 0.01138 2e-3 0.03659-2.6e-4 0.07209-2e-3 0.10852 0.0259 0.06489 0.0386 0.12928 0.0362 0.20309-2e-3 0.02363 2e-3 0.04385 4e-3 0.0677 4e-3 0.05293 7e-3 0.11687-0.0155 0.16536-4e-3 0.0127-7e-3 0.02596-0.0119 0.03824-1e-3 0.0041-6e-3 7e-3 -6e-3 0.01138 0 0.02424 5e-3 0.04864 5e-3 0.07286-1e-3 0.05166-2e-3 0.07631-6e-3 0.09818 0.0171 0.07362 0.0286 0.16613 0.0129 0.12092-0.0138-0.03987-0.0158-0.05389-0.0222-0.07803-3e-3 0.01167-4e-3 0.01807-8e-3 0.03617-5e-3 0.01767-0.0102 0.03541-0.015 0.05323 4e-3 0.03857 6e-3 0.07309 0.0181 0.13074 8e-3 0.03598 0.0467-0.0582 0.0615-0.09198 0.0165-0.03784 0.0147-0.09597 1e-3 -0.13488-7e-3 -0.01857-0.018-0.03451-0.0279-0.05168 0.0444 0.06685 0.035 0.05928 0.0496 0.11472-3e-3 -0.0057-7e-3 -0.01109-1e-3 -0.01138 0.0115-5.29e-4 0.0134 0.01429 0.0129 0.03256-2e-3 -0.0052-6e-3 -0.01127-0.0114-0.01704 3e-3 0.01146 3e-3 0.01535 0.0114 0.03462 1.8e-4 -0.0016 3e-5 -0.0034 5.3e-4 -0.0052 2e-3 0.01262 5e-3 0.03022 3e-3 0.02273-5e-3 -0.01154-3e-3 -0.0088-5e-3 -0.0155-1.8e-4 -7.94e-4 -1e-5 -5.29e-4 -5.3e-4 -0.0016 1e-5 7.94e-4 2e-5 0.0013 0 0.0016-5e-3 0.04911-0.0206 0.10951 0.0191 0.07338v0.26768c0 0.02286-6e-5 0.04587 0 0.06873-6e-5 0.02712-6e-5 0.05401 0 0.08113 0 0.04057-1.5e-4 0.08138 0 0.12196 1.7e-4 0.03616 2e-3 0.0724-5.3e-4 0.10852 0 0.0127-5.3e-4 0.02506 2e-3 0.03772 3e-3 0.0598-5.3e-4 0.11663-0.0124 0.17466 1.8e-4 0.0034-1e-3 -2.54e-4 2e-3 0.01757-4e-3 0.06294-5e-3 0.05628-0.0155 0.08992v0.0011c-3e-3 0.01003-3e-3 0.0079-9e-3 0.03152-2e-3 0.0089 7e-3 -0.01675 9e-3 -0.02635-3e-3 0.02257-5e-3 0.05183-3e-3 0.03411-1e-3 0.0077-2e-3 0.01556-4e-3 0.02326-1e-3 4e-3 -3e-3 0.0078-4e-3 0.01188-3e-3 0.02347 2e-3 0.04772 0 0.07131v0.16278c0 0.03497 8e-5 0.06995 0 0.1049-2.2e-4 0.03492-5.3e-4 0.07001 5.3e-4 0.1049 0 0.02508-2.6e-4 0.04989-2e-3 0.07493-2.2e-4 0.0071 1.9e-4 0.01407-5.3e-4 0.02119-1e-4 0.0013 2.6e-4 0.0048-5.3e-4 0.0036-4e-3 -0.0077-7e-3 -0.01619-0.0104-0.02429 4e-3 0.01381 0.01 0.02718 0.0129 0.04134 5e-3 0.02548 9e-3 0.05164 0.0119 0.07752 8e-4 0.0064 1e-3 0.01262 1e-3 0.01913 1.5e-4 0.03491-2.6e-4 0.06999-1e-3 0.1049-2.2e-4 0.0064 1.2e-4 0.01323-5.3e-4 0.01963-1.7e-4 0.0032 2.7e-4 0.0123-5.2e-4 0.0093-2e-3 -0.0063-4e-3 -0.02683-3e-3 -0.02016 6e-3 0.03776 0.0134 0.07523 8e-3 0.11369-1e-3 0.02257-2e-3 0.04518-4e-3 0.0677-4e-3 0.03893-0.01 0.07637-0.01 0.11576 9e-5 0.05138 5.3e-4 0.10263-5.3e-4 0.154-9e-5 0.0031-7.9e-4 0.0066-1e-3 0.0098-2e-3 -0.0093-4e-3 -0.0186-6e-3 -0.02791 3e-3 0.01543 8e-3 0.03042 9e-3 0.04599 5.3e-4 0.02088-2e-3 0.02611-2e-3 0.03876-2e-3 -0.03797-0.0245-0.06074-0.0155-0.02997 4e-3 0.01527 0.01 0.03042 0.0145 0.04548v0.001058c7e-3 0.0218 0.0163 0.04345 0.0243 0.06511h2e-3c0.15984 0.43956-0.28459 0.60079-0.44442 0.16123-0.0157-0.04329-0.0229-0.06601-0.0326-0.09663-0.0285 0.10503-0.0561 0.21046-0.0837 0.31574 3e-3 0.0096 8e-3 0.02606 9e-3 0.03101 0.0263 0.13274 0.0212 0.13074 0.0212 0.24908-1e-3 0.22463-2.7e-4 0.07391-2e-3 0.24598-2e-3 0.1243 4e-3 0.25135-0.0367 0.37104h-2e-3c-0.0305 0.09007-0.0742 0.14892-0.1204 0.19379 0.32938 0.6052 0.29236 1.1457 0.0207 1.4893-0.16474 1.2552-1.7379 1.5581-2.6954-0.1974-0.16116-0.29543-0.20633-0.37569-0.32608-0.58343-0.0123 0.10905-0.0322 0.21704-0.0641 0.32246-0.0361 0.11958-0.14635 0.4742-0.13435 0.34985 0.0157-0.16296 0.0971-0.31289 0.14572-0.46922l3e-3 -0.0987c2e-3 -0.07086 2e-3 -0.13323 0-0.19275-6e-3 -0.0105-6e-3 -0.01207-0.0129-0.02326-0.0279-0.04794-0.0668-0.09054-0.0858-0.14263-0.0462-0.12634-0.095-0.25248-0.1359-0.38085-0.2207-0.01992-0.57079 0.3311-0.9369 0.7152 0.14813 2.1559 0.32757 0.58846-5.7748 10.432 1.3992-0.84014 2.9232-1.9243 4.1548-3.2628 1.0849-1.1791 0.6799-3.1341 1.1312-4.6716 0.0807-0.27494-9e-3 0.57286-0.0119 0.85938-5e-3 0.43382-9e-3 0.86789-0.0124 1.3017-2e-3 0.25497-1e-3 0.50984-2e-3 0.76481-0.01 0.98885 0.13816 1.964 0.12815 2.9538-0.0186 1.9024-0.14438 2.1695-0.54415 4.1491-0.0148 0.0731 0.0163-0.14852 0.0243-0.22272 5e-3 -0.38749 0.0547-1.5483 0.016-1.1627-0.15769 1.571-0.1584 2.0586-0.13436 2.1844 0.0765-0.13547 0.0257 0.13453 0 0-0.0615 0.10881-0.21064 0.5111-0.52452 1.6149-9e-3 1.5382-3e-3 0.91592-0.0248 2.542-4e-3 0.302 0.0211 0.60675 7e-3 0.90796 9e-3 0.0625 0.0168 0.12507 0.0253 0.18758 0.0976 1.4133 0.30605 3.0987-0.12867 4.4623-0.12035 0.37752-0.26603 0.74526-0.4222 1.109-7.9e-4 0.92384-1e-3 1.8476-3e-3 2.7714 0 0.0903 3e-3 -0.18049 4e-3 -0.27079-2e-3 0.513 2e-3 1.026 3e-3 1.5389 0.2642-0.0876 0.52977-0.17133 0.79736-0.2465 0.0631-0.0177 0.0572 0.11783 0.0858 0.17673 0.12562 0.31732 0.23187 0.63454 0.31988 0.96532 0.015 0.0564 0.0266 0.11407 0.0336 0.17208 3e-3 0.0272-0.0149 0.0563-4e-3 0.0822 0.0394 0.11282 0.0974 0.21804 0.14624 0.32711 0.049 0.16515 0.10566 0.32779 0.14676 0.49506 0.0282 0.11457 0.0414 0.23241 0.0605 0.34881 0.0396 0.241 0.0787 0.4821 0.11576 0.72347 0.10991 0.71517 0.22367 1.4324 0.28267 2.1539 0.15043 1.2366 0.0198 0.22079 0.11885 0.79685 0.20137-0.26898 0.50485-0.41698 0.84698-0.40876 0.52927 0.0127 1.1488 0.39619 1.6164 1.2712 0.22435 0.41978 0.30873 0.88381 0.36587 1.3513 0.26564 0.30267 0.46063 0.76684 0.50436 1.404 0.0242 0.35235 0.12119 0.69068 0.13229 1.0444 1e-3 0.0265-6e-3 0.13861-0.0119 0.24081 0.30973 0.24306 0.5928 0.63693 0.78652 1.2128 0.12534 0.37264 0.22835 0.75379 0.30075 1.1405 0.029-0.01 0.0597-0.0111 0.092-8e-3 0.0922 0.0193 0.18845 0.1056 0.24288 0.27233 0.0194 0.0595 0.0296 0.1214 0.045 0.1819 3e-3 0.0128 7e-3 0.0251 0.0119 0.0377 1e-3 4e-3 3e-3 7e-3 4e-3 0.0114 7e-3 0.0326 0.0126 0.0655 0.0186 0.0982 4e-3 0.0503 5e-3 0.0624 4e-3 0.11059-2.3e-4 -0.0104-7e-3 -0.0357-6e-3 -0.0269l-5.3e-4 5.3e-4c2e-3 0.0114 4e-3 0.0227 6e-3 0.0341-2.5e-4 1e-3 -1e-3 3e-3 -1e-3 5e-3 3e-3 0.0197 7e-3 0.0392 0.0104 0.0589 3e-3 0.0705-3e-3 0.14138-2e-3 0.21188 8e-4 0.0505 5.3e-4 0.10091 5.3e-4 0.15141 3e-3 0.11945 0.0179 0.23795 0.0129 0.3576-7e-3 0.0883 4e-3 0.1771-9e-3 0.2651-3e-3 0.0217-4e-3 0.045-0.015 0.0641-1e-3 2e-3 -3e-3 3e-3 -4e-3 5e-3 2e-3 0.0382 2e-3 0.0504 2e-3 0.108-1e-3 0.11809-1e-3 0.2359-1e-3 0.35398 2e-4 0.0974 0 0.19509 0 0.29249 2e-5 0.18068 5.3e-4 0.36088 5.3e-4 0.54157 0 9e-3 -8e-4 0.0184 0 0.0274 1e-3 5e-3 3e-3 0.01 4e-3 0.015 1e-3 7e-3 4e-3 0.0122 4e-3 0.0191 7e-3 0.0743 7e-3 0.14584 5e-3 0.22014-1e-3 0.0142-3e-3 0.0287-2e-3 0.0429 1e-3 0.021 8e-3 0.0699 0.0104 0.0915 5e-3 0.053 6e-3 0.10409 4e-3 0.1571-4e-3 0.0516-5.2e-4 0.10374-5.2e-4 0.15554 1e-5 8e-3 -5.3e-4 0.0168 0 0.0248 2e-3 0.0306 8e-3 0.0613 0.01 0.092 4e-3 0.0455 4e-3 0.0903 3e-3 0.13539 5e-3 0.0205 9e-3 0.0412 0.0129 0.062 4e-3 0.024 1e-3 0.0698 5.3e-4 0.093-3e-3 0.0521-3e-3 0.10438-2e-3 0.15658 7e-5 7e-3 2e-3 0.0142 1e-3 0.0212-3e-3 0.026-7e-3 0.0516-0.0109 0.0775-2e-3 9e-3 -4e-3 0.0172-7e-3 0.0258-2e-3 7e-3 -4e-3 0.0125-6e-3 0.0191 2e-3 -4e-3 3e-3 -0.0107 7e-3 -0.0119l5.3e-4 -5.3e-4c3e-3 -8e-5 1e-3 5e-3 5.3e-4 9e-3 1.4e-4 1e-3 -1.3e-4 2e-3 0 3e-3 1e-3 0.0131 2e-3 0.0262 4e-3 0.0393 2.6e-4 0.0455 2e-3 0.0354-0.0114 0.10336-1e-3 6e-3 -3e-3 0.0121-5e-3 0.0181-1e-3 -9e-3 -3e-3 -0.0364-4e-3 -0.0274-7.9e-4 0.0146-5.3e-4 0.0287-5.3e-4 0.0434 9e-5 0.0278 1e-3 0.0555-2e-3 0.0832-1e-3 0.0149-0.0123 0.0325-0.0212 0.0553 5.3e-4 7.9e-4 1.9e-4 0.029-2e-3 0.0434-1e-3 0.0139-4e-3 0.0281-6e-3 0.0419 1e-5 -8e-3 4e-5 -0.0155 0-0.0227-0.011-0.0701 1e-3 -5e-3 -8e-3 0.10438-7.9e-4 9e-3 -4e-3 0.0165-6e-3 0.0248 2.6e-4 2e-3 -1.4e-4 3e-3 5.3e-4 6e-3 7.9e-4 -7.9e-4 -5.3e-4 -5.3e-4 2e-3 -5.3e-4 2e-3 4e-3 -2.7e-4 9e-3 5.3e-4 0.0145-1e-3 -0.0104-2e-3 -7e-3 -3e-3 -0.0124-1e-3 1e-3 -3e-3 2e-3 -3e-3 2e-3 5.3e-4 -2e-3 1e-3 -5e-3 2e-3 -7e-3 -7e-3 -0.0511-4e-3 0.0326-0.0667 0.1478-7e-5 5.3e-4 7e-5 5.3e-4 0 2e-3 0.0147-8e-3 0.0307-0.0126 0.0439-0.0222 0.0183-0.0134 9e-3 -0.0846 0.0129-0.0465 7e-3 0.0427-1e-3 0.086 2e-3 0.12868 5e-5 0.0444 5.3e-4 0.0889 5.3e-4 0.13332-2e-3 0.0378 2e-3 0.0792-5.3e-4 0.11627-2e-3 0.0253-7e-3 0.0501-0.0103 0.0749-5e-3 0.0116-1e-3 6e-3 -4e-3 0.0119-2.4e-4 -2e-3 -8e-4 -3e-3 -1e-3 -6e-3 -2e-3 -7e-3 -9e-3 -0.0199-0.01-0.0212h-1e-3c4e-3 0.01 7e-3 0.0187 0.0119 0.0279-8e-4 -0.0141-4e-3 -0.0428 2e-3 0.0155 9e-5 5e-3 -4e-5 6e-3 0 8e-3h72.93v-101.56h-73.031c0.0209 0.04227 0.0165 0.07234 0.015 0.11576-0.0204 0.08678-8e-3 0.0049-0.031-0.11576zm0.0408 0.04651h5.3e-4c-8e-4 -0.0026 2e-3 0.0045 3e-3 0.0072 1.7e-4 0.0013 5.3e-4 0.0024 5.3e-4 0.0036-7.9e-4 -0.0037-2e-3 -0.0073-4e-3 -0.01085zm-0.0253 0.86765c-0.0161 0.03521-0.0268 0.05555-1e-3 0.01188 2e-3 -0.0056 2.6e-4 -0.0083 1e-3 -0.01188zm-0.0367 2.3105c5.3e-4 0.0021 1e-3 0.0042 2e-3 0.0062-2.6e-4 -0.0016 6e-5 -0.0035-5.3e-4 -0.0052-5e-5 -5.29e-4 -1e-3 -0.0013-1e-3 -0.0011zm0.0393 1.1576c-5e-3 0.0154-0.0102 0.03081-0.0139 0.04651-3e-3 0.01259 8e-3 -0.02447 0.0134-0.03669 2e-4 -0.0033-1.6e-4 -0.0066 5.2e-4 -0.0098zm-2.7502 0.80667c2.5e-4 2.62e-4 -1.5e-4 0.0021 5.3e-4 0.0026 1.3e-4 1.03e-4 5.3e-4 -0.0028 5.3e-4 -0.0026zm5.3e-4 0.0026h-5.3e-4c1.9e-4 2.38e-4 -1.6e-4 0.0013 0 0.0016 7e-5 3.8e-5 5.3e-4 -0.0016 5.3e-4 -0.0016zm-5.3e-4 0.0016c-8e-3 -0.0044-0.0305 0.16909-0.0346 0.26096 9e-3 0.01569 7e-3 0.02469 0.0207 0.09509 3e-3 0.01622 8e-3 0.0381 0.0103 0.04858 8e-3 -0.13002 0.0163-0.26026 7e-3 -0.39016-5.3e-4 -0.0084-2e-3 -0.01183-3e-3 -0.01447zm-5e-3 0.40462c9e-5 2.65e-4 -1.5e-4 0.0011 5.3e-4 0.0016 4e-5 -5.3e-4 -3e-5 -0.0011 0-0.0016zm5.3e-4 0.0016h-5.3e-4c2.1e-4 5.29e-4 -1.4e-4 7.93e-4 5.3e-4 0.0016 4e-5 -5.29e-4 -4e-5 -0.0011 0-0.0016zm0 0.0016h-5.3e-4c1.5e-4 5.29e-4 -1.3e-4 5.29e-4 5.3e-4 0.0011 4e-5 -2.64e-4 -4e-5 -7.93e-4 0-0.0011zm0 0.0011h-5.3e-4c1.7e-4 5.3e-4 -1e-4 0.0021 5.3e-4 0.0026 8e-5 -2.62e-4 -5e-5 -0.0021 0-0.0026zm0.40721 2.4179c7e-3 0.01725 9e-3 0.03272 2e-3 0.04651-4e-3 0.0086-3e-3 -0.01939-4e-3 -0.02894 5.3e-4 -4e-3 -1e-3 -0.01249 2e-3 -0.01757zm2.1327 43.879c-4e-3 -0.0071-0.0409 0.02439-0.0791 0.05633-4e-3 0.01696-9e-3 0.0337-0.0134 0.05064 0.0356-0.02787 0.07-0.0562 0.0899-0.0956 3e-3 -0.0058 4e-3 -0.0097 3e-3 -0.01138zm-1.1002 0.7829c-0.0106-0.0039-6e-3 0.0114 7e-3 0.03566 1e-3 -0.0091 2e-3 -0.01826 4e-3 -0.02739-3e-3 -0.0019-9e-3 -0.0075-0.0108-0.0083zm-5.1356 17.04c-0.1673 0.60047-0.37407 1.3716-0.63304 2.3787-0.12772 0.49672 0.43309-0.94024 0.53279-1.4433 0.061-0.30792 0.0839-0.62124 0.10025-0.93534zm-1.0485 10.176c-0.4214 0.85474-0.8601 1.703-1.1948 2.5926-0.19908 0.5292 0.71594-0.90821 0.88263-1.4485 0.11917-0.38624 0.22225-0.7708 0.31213-1.1441zm-12.893 2.2701c0.01918 0.84309 0.03253 1.6858 0.0155 2.5285-0.01474 0.72954-0.02228 1.0526-0.03462 1.649 1.8368 0.11382 3.6697 0.25561 5.4855 0.47698 0.1159-0.19929 0.23295-0.39823 0.3452-0.59945 0.4737 0.23545 0.9799 0.41406 1.4211 0.70591 0.053 0.035 0.0829 0.0911 0.10646 0.15244 1.7285 0.27086 3.4362 0.62972 5.1103 1.125-0.0425-0.24062-0.0478-0.26242-0.10851-0.60357-0.0542-0.34599-0.0825-0.51133-0.12093-0.74517-6.1266-1.8567-9.8255-3.5431-12.22-4.6896zm13.118 9.4898c-0.041 0.14761-0.0787 0.30239-0.10956 0.4713 0.0419-0.10643 0.0909-0.21684 0.13953-0.32711-0.0125-0.0596-0.0184-0.0886-0.03-0.14419zm-0.10956 0.4713c-0.0689 0.17491-0.12664 0.34297-0.16691 0.50126 0.0317-2e-3 0.0655-3e-3 0.0966-6e-3 0.0187-0.17427 0.0419-0.34022 0.0703-0.49557zm-0.0703 0.49557c-7e-3 0.068-0.016 0.13311-0.0217 0.20412-0.0346 0.42734-0.0121 0.85672-3e-3 1.2857 0.0546 0.11509 0.0991 0.24834 0.13332 0.38654 0.0829 0.11822 0.15674 0.24255 0.23513 0.3638 0.10448 0.21004 0.21966 0.41528 0.31316 0.63045 0.0509 0.11725 0.14652 0.40487 0.23978 0.69557-0.0137-0.19846-0.0335-0.41437-0.0755-0.74621-0.0124-0.0984-0.0423-0.19364-0.0615-0.29094-0.0347-0.17578-0.0669-0.3521-0.10025-0.52813-0.0202-0.10653-0.0461-0.21241-0.0605-0.31988-0.0369-0.27622-0.062-0.5535-0.093-0.83044-0.0155-0.16625-0.03-0.33281-0.045-0.49919-0.0291-0.12879-0.0587-0.25753-0.0868-0.38654-0.12216 0.0127-0.24316 0.0255-0.37413 0.0351z" fill="none" stop-color="#000000" stroke-opacity="0" style="font-variation-settings:normal"/>
  </clipPath>
  <mask id="mask-powermask-path-effect2371" maskUnits="userSpaceOnUse">
   <path id="mask-powermask-path-effect2371_box" d="m74.222 43.228h113.11v102.53h-113.11z" fill="#fff"/>
   <path d="m113.86 24.589c0 150.21 0.26727 150.21 0.26727 150.21" fill="none" stroke="#000" stroke-width=".26458px"/>
  </mask>
 </defs>
 <metadata>
  <rdfRDF>
   <ccWork rdfAbout="">
    <dcFormat>image/svg+xml</dcFormat>
    <dcType rdfResource="http://purl.org/dc/dcmitype/StillImage"/>
    <dcTitle/>
   </ccWork>
  </rdfRDF>
 </metadata>
 <text fill="#000000" font-family="sans-serif" font-size="10.583px" style="line-height:180;shape-inside:url(#rect1581);white-space:pre" xml:space="preserve"/>
 <g transform="matrix(.50864 0 0 .50864 349.24 -.72844)">
  <g transform="translate(-1.3431 7.956)" stroke="url(#linearGradient3528)">
   <g fill-opacity="0">
    <rect x="53.454" y="63.076" width="160.36" height="128.29" ry="7.4836" clip-path="url(#clipPath2264)" stroke-width="6"/>
    <g stroke-width="6">
     <rect x="68.421" y="85.473" width="19.243" height="19.243" ry="3.7418"/>
     <rect x="68.421" y="116.89" width="19.243" height="19.243" ry="3.7418"/>
     <rect x="68.421" y="147.77" width="19.243" height="19.243" ry="3.7418"/>
    </g>
   </g>
   <g>
    <rect x="102.99" y="86.362" width="72.521" height="15.86" ry="3.6855" fill="url(#linearGradient3544)" stroke-width="5.6417"/>
    <rect x="102.73" y="118.01" width="58.067" height="16.373" ry="3.8046" fill="url(#linearGradient3552)" stroke-width="5.1291"/>
    <rect x="102.73" y="149.73" width="83.923" height="15.502" ry="3.6022" fill="url(#linearGradient3560)" stroke-width="6"/>
   </g>
   <path d="m79.942 63.091h23.159v-0.09393" fill="none" stroke-width="5.983"/>
   <path d="m161.96 63.091h23.159v-0.09393" fill="none" stroke-width="5.983"/>
   <g>
    <rect transform="matrix(1 .0016656 0 1 0 0)" x="55.259" y="66.509" width="156.43" height="5.8507" ry="0" fill="url(#linearGradient3536)" stroke-width="4.6658"/>
    <rect x="74.219" y="54.942" width="5.5882" height="15.227" ry="2.414" stroke-width="1.2704"/>
    <rect x="189.05" y="54.942" width="5.5882" height="15.227" ry="2.414" stroke-width="1.2704"/>
   </g>
  </g>
  <path d="m95.484 13.909c7.7318-3.1616 7.794-3.1859 7.794-3.1859" fill="none" marker-end="url(#Arrow1Lend)" stroke="#7f2308" stroke-width="2.4"/>
  <path d="m212.68 226.68c-6.1666 5.6347-6.2166 5.679-6.2166 5.679" fill="none" marker-end="url(#Arrow1Lend-8)" stroke="#467f08" stroke-width="2.4"/>
  <circle cx="132.29" cy="132.29" r="124.81" clip-path="url(#clipPath1204)" fill-opacity="0" stroke="#467f08" stroke-width="8.8448"/>
 </g>
 <g fill="none" stroke="#890739">
  <ellipse cx="70.013" cy="66.559" rx="60.226" ry="63.273" clip-path="url(#clipPath4042)" stroke-width="4.9192"/>
  <rect x="141.59" y="2.6366" width=".76442" height="127.03" clip-path="url(#clipPath3568)" stroke-width="4.9554"/>
  <rect transform="matrix(.88788 -.46007 .56728 .82352 0 0)" x="116.34" y="70.148" width=".87152" height="150.77" clip-path="url(#clipPath3579)" stroke-width="5.5738"/>
  <rect x="230.42" y="2.494" width=".76442" height="127.03" stroke-width="4.9554"/>
 </g>
 <g stroke="#467f08">
  <g fill-opacity="0">
   <path transform="translate(-48.154)" d="m829.64 66.016a63.383 63.383 0 0 1-63.383 63.383 63.383 63.383 0 0 1-63.383-63.383 63.383 63.383 0 0 1 63.383-63.383 63.383 63.383 0 0 1 63.383 63.383z" clip-path="url(#clipPath5246)" mask="url(#mask-powermask-path-effect4887)" stroke-width="4.9201"/>
   <rect x="690.44" y="2.5689" width="26.658" height=".1659" stroke-width="4.8"/>
   <rect x="690.44" y="129.3" width="26.658" height=".1659" stroke-width="4.8"/>
   <rect x="690.44" y="2.7348" width=".15656" height="122.59" stroke-width="4.8"/>
   <path transform="matrix(.99889 0 0 1.0482 -23.624 -.066273)" x="594.88171" y="2.5809829" width="104.76965" height="64.144684" ry="32.072342" d="m626.95 2.581h40.625c17.768 0 32.072 14.304 32.072 32.072 0 17.768-14.304 32.072-32.072 32.072h-40.625c-17.768 0-32.072-14.304-32.072-32.072 0-17.768 14.304-32.072 32.072-32.072z" clip-path="url(#clipPath4828)" mask="url(#mask-powermask-path-effect4187)" stroke-width="5"/>
   <rect x="600.18" y="69.686" width=".29904" height="60.124" rx="0" ry="0" stroke-width="4.9959"/>
   <rect transform="matrix(.72388 -.68992 .59509 .80366 0 0)" x="470.5" y="492.98" width=".14814" height="70.071" stroke-width="5.6638"/>
  </g>
  <path transform="matrix(.77989 0 0 .57552 143.8 56.283)" d="m686.79 129.27-1.1914 0.0197 0.57866-1.0416z" fill="none" stroke-width="4.8"/>
  <rect transform="matrix(.94478 .3277 -.38439 .92317 0 0)" x="497.73" y="-164.08" width="1.0364" height="127.1" rx="0" ry=".47781" fill-opacity="0" stroke-width="4.6544"/>
  <rect transform="matrix(-.94478 .3277 .38439 .92317 0 0)" x="-491.42" y="186.99" width="1.0364" height="127.1" rx="0" ry=".47781" fill-opacity="0" stroke-width="4.6544"/>
  <g fill="none" stroke-width="4.8">
   <path transform="matrix(.72227 0 0 .90028 135.03 13.098)" d="m482.46 129.17 0.40917 0.7087h-0.81834z"/>
   <path transform="matrix(.72227 0 0 .90028 237.5 13.059)" d="m482.46 129.17 0.40917 0.7087h-0.81834z"/>
   <path transform="matrix(.99799 .016503 -.029495 1.6237 .27114 -4.48)" d="m536.46 3.5083-1.5022 0.016839 0.73651-1.3093z"/>
  </g>
 </g>
 <g transform="matrix(1.3343 0 0 1.3146 96.659 -58.201)" clip-path="url(#clipPath2948)" fill="none" mask="url(#mask-powermask-path-effect2371)" stroke="#467f08" stroke-width="3.7693">
  <path x="80.282143" y="46.113098" width="89.958336" height="46.869045" ry="23.434523" d="m103.72 46.113h43.089c12.983 0 23.435 10.452 23.435 23.435 0 12.983-10.452 23.435-23.435 23.435h-43.089c-12.983 0-23.435-10.452-23.435-23.435 0-12.983 10.452-23.435 23.435-23.435z"/>
  <path x="77.10714" y="92.982147" width="107.34524" height="49.892853" ry="24.946426" d="m102.05 92.982h57.452c13.82 0 24.946 11.126 24.946 24.946s-11.126 24.946-24.946 24.946h-57.452c-13.82 0-24.946-11.126-24.946-24.946s11.126-24.946 24.946-24.946z"/>
 </g>
</svg>
